<svg xmlns="http://www.w3.org/2000/svg" viewBox="0 0 420 100" fill="none">
  <!-- Valio Aimo Logo - Ultra Clean Version -->
  
  <!-- Aimo in smooth script -->
  <g fill="white" stroke="white" stroke-width="1.5" stroke-linecap="round" stroke-linejoin="round">
    <!-- A - very smooth curves -->
    <path d="M 20 76 Q 18 54 23 46 Q 27 40 32 43 L 36 57 Q 38 64 40 68 Q 42 70 44 68 L 46 57 Q 45 52 43 48 L 40 40 Q 38 35 40 33 Q 42 32 45 35 Q 48 39 50 47 L 53 68 Q 54 72 55 74"/>
    
    <!-- i -->
    <circle cx="70" cy="42" r="3" fill="white"/>
    <line x1="70" y1="52" x2="70" y2="76" stroke-width="2"/>
    
    <!-- m -->
    <path d="M 86 56 L 86 76 M 86 58 Q 90 54 94 58 Q 94 63 94 76 M 94 58 Q 98 54 102 58 Q 102 63 102 76" stroke-width="2"/>
    
    <!-- o -->
    <circle cx="135" cy="66" r="8.5" fill="none" stroke-width="2"/>
  </g>
  
  <!-- Dot -->
  <circle cx="158" cy="66" r="2.5" fill="white"/>
  
  <!-- VALIO -->
  <text x="180" y="71" font-family="Arial, sans-serif" font-size="17" font-weight="700" fill="white" letter-spacing="2.5">VALIO</text>
</svg>
